<svg width="322" height="38" viewBox="0 0 322 38" fill="none" xmlns="http://www.w3.org/2000/svg">
<path d="M0 34.7992H298.029V37.82H0V34.7992Z" fill="#BA93FF"/>
<path d="M295.363 35.3472L322 17.82L319.165 20.0841L298.029 37.82L295.363 35.3472Z" fill="#BA93FF"/>
<path d="M20.64 1.806V24.037C20.64 25.2983 20.425 26.445 19.995 27.477C19.565 28.509 18.9487 29.3833 18.146 30.1C17.372 30.8167 16.4403 31.3757 15.351 31.777C14.2617 32.1497 13.072 32.336 11.782 32.336C9.48867 32.336 7.59667 31.7483 6.106 30.573C4.61533 29.369 3.64067 27.692 3.182 25.542L6.622 24.811C6.76533 25.413 6.95167 25.9863 7.181 26.531C7.439 27.047 7.76867 27.5057 8.17 27.907C8.6 28.2797 9.116 28.5807 9.718 28.81C10.32 29.0393 11.0367 29.154 11.868 29.154C13.502 29.154 14.7633 28.6953 15.652 27.778C16.5693 26.832 17.028 25.37 17.028 23.392V4.945H6.192V1.806H20.64Z" fill="black"/>
<path d="M38.6832 32.336C37.1352 32.336 35.7305 32.0637 34.4692 31.519C33.2365 30.9743 32.1759 30.2003 31.2872 29.197C30.4272 28.165 29.7679 26.9467 29.3092 25.542C28.8505 24.1087 28.6212 22.5033 28.6212 20.726C28.6212 18.9773 28.8505 17.3863 29.3092 15.953C29.7679 14.5197 30.4272 13.3013 31.2872 12.298C32.1759 11.266 33.2365 10.4777 34.4692 9.933C35.7305 9.38833 37.1352 9.116 38.6832 9.116C40.2312 9.116 41.6215 9.38833 42.8542 9.933C44.1155 10.4777 45.1762 11.266 46.0362 12.298C46.9249 13.3013 47.5985 14.5197 48.0572 15.953C48.5159 17.3863 48.7452 18.9773 48.7452 20.726C48.7452 22.5033 48.5159 24.1087 48.0572 25.542C47.5985 26.9467 46.9249 28.165 46.0362 29.197C45.1762 30.2003 44.1155 30.9743 42.8542 31.519C41.6215 32.0637 40.2312 32.336 38.6832 32.336ZM38.6832 29.369C40.6039 29.369 42.1519 28.7957 43.3272 27.649C44.5025 26.5023 45.0902 24.725 45.0902 22.317V19.135C45.0902 16.727 44.5025 14.9497 43.3272 13.803C42.1519 12.6563 40.6039 12.083 38.6832 12.083C36.7625 12.083 35.2145 12.6563 34.0392 13.803C32.8639 14.9497 32.2762 16.727 32.2762 19.135V22.317C32.2762 24.725 32.8639 26.5023 34.0392 27.649C35.2145 28.7957 36.7625 29.369 38.6832 29.369Z" fill="black"/>
<path d="M64.7244 32.336C62.4024 32.336 60.3957 31.949 58.7044 31.175C57.0417 30.3723 55.6227 29.3117 54.4474 27.993L56.7694 25.972C57.8301 27.09 58.9911 27.95 60.2524 28.552C61.5137 29.154 63.0331 29.455 64.8104 29.455C66.5304 29.455 67.9351 29.154 69.0244 28.552C70.1424 27.9213 70.7014 26.9467 70.7014 25.628C70.7014 25.0547 70.5867 24.5817 70.3574 24.209C70.1567 23.8077 69.8701 23.4923 69.4974 23.263C69.1247 23.0337 68.7091 22.8617 68.2504 22.747C67.7917 22.6037 67.3044 22.489 66.7884 22.403L63.3054 21.887C62.5314 21.7723 61.6857 21.6147 60.7684 21.414C59.8797 21.2133 59.0627 20.898 58.3174 20.468C57.5721 20.0093 56.9414 19.4073 56.4254 18.662C55.9381 17.9167 55.6944 16.942 55.6944 15.738C55.6944 14.62 55.9094 13.6597 56.3394 12.857C56.7981 12.0257 57.4287 11.3377 58.2314 10.793C59.0341 10.2197 59.9801 9.804 61.0694 9.546C62.1587 9.25933 63.3484 9.116 64.6384 9.116C66.6451 9.116 68.3794 9.43133 69.8414 10.062C71.3321 10.6927 72.6077 11.567 73.6684 12.685L71.4324 14.792C71.1744 14.4767 70.8447 14.1613 70.4434 13.846C70.0707 13.502 69.5977 13.201 69.0244 12.943C68.4797 12.6563 67.8347 12.427 67.0894 12.255C66.3441 12.083 65.4841 11.997 64.5094 11.997C62.7607 11.997 61.4134 12.298 60.4674 12.9C59.5501 13.502 59.0914 14.3763 59.0914 15.523C59.0914 16.0963 59.1917 16.5837 59.3924 16.985C59.6217 17.3577 59.9227 17.6587 60.2954 17.888C60.6681 18.1173 61.0837 18.3037 61.5424 18.447C62.0297 18.5617 62.5171 18.662 63.0044 18.748L66.4874 19.264C67.2901 19.3787 68.1357 19.5363 69.0244 19.737C69.9131 19.9377 70.7301 20.2673 71.4754 20.726C72.2207 21.156 72.8371 21.7437 73.3244 22.489C73.8404 23.2343 74.0984 24.209 74.0984 25.413C74.0984 27.6203 73.2384 29.326 71.5184 30.53C69.8271 31.734 67.5624 32.336 64.7244 32.336Z" fill="black"/>
<path d="M81.5636 0H85.0036V13.244H85.1756C85.4049 12.6993 85.6916 12.1833 86.0356 11.696C86.3796 11.18 86.7953 10.7357 87.2826 10.363C87.7986 9.99033 88.4006 9.68933 89.0886 9.46C89.7766 9.23067 90.5793 9.116 91.4966 9.116C93.8186 9.116 95.6819 9.86133 97.0866 11.352C98.4913 12.814 99.1936 14.8923 99.1936 17.587V31.82H95.7536V18.189C95.7536 16.1537 95.3093 14.6487 94.4206 13.674C93.5319 12.6707 92.2276 12.169 90.5076 12.169C89.8196 12.169 89.1459 12.255 88.4866 12.427C87.8273 12.599 87.2396 12.857 86.7236 13.201C86.2076 13.545 85.7919 13.9893 85.4766 14.534C85.1613 15.0787 85.0036 15.7093 85.0036 16.426V31.82H81.5636V0Z" fill="black"/>
<path d="M121.279 28.208H121.107C120.877 28.7527 120.591 29.283 120.247 29.799C119.903 30.2863 119.473 30.7163 118.957 31.089C118.469 31.4617 117.882 31.7627 117.194 31.992C116.506 32.2213 115.703 32.336 114.786 32.336C112.464 32.336 110.6 31.605 109.196 30.143C107.791 28.6523 107.089 26.5597 107.089 23.865V9.632H110.529V23.263C110.529 25.2983 110.973 26.8177 111.862 27.821C112.75 28.7957 114.055 29.283 115.775 29.283C116.463 29.283 117.136 29.197 117.796 29.025C118.455 28.853 119.043 28.595 119.559 28.251C120.075 27.907 120.49 27.477 120.806 26.961C121.121 26.4163 121.279 25.7713 121.279 25.026V9.632H124.719V31.82H121.279V28.208Z" fill="black"/>
<path d="M150.201 31.82C148.854 31.82 147.893 31.476 147.32 30.788C146.747 30.1 146.388 29.24 146.245 28.208H146.03C145.543 29.498 144.754 30.5157 143.665 31.261C142.604 31.9777 141.171 32.336 139.365 32.336C137.043 32.336 135.194 31.734 133.818 30.53C132.442 29.326 131.754 27.6777 131.754 25.585C131.754 23.521 132.499 21.93 133.99 20.812C135.509 19.694 137.946 19.135 141.3 19.135H146.03V16.942C146.03 15.308 145.571 14.0897 144.654 13.287C143.737 12.4557 142.432 12.04 140.741 12.04C139.25 12.04 138.032 12.341 137.086 12.943C136.14 13.5163 135.38 14.3047 134.807 15.308L132.485 13.588C132.772 13.0147 133.159 12.4557 133.646 11.911C134.133 11.3663 134.735 10.8933 135.452 10.492C136.169 10.062 136.986 9.73233 137.903 9.503C138.82 9.245 139.838 9.116 140.956 9.116C143.565 9.116 145.629 9.77533 147.148 11.094C148.696 12.4127 149.47 14.2473 149.47 16.598V28.81H152.566V31.82H150.201ZM139.967 29.455C140.856 29.455 141.658 29.3547 142.375 29.154C143.12 28.9247 143.765 28.638 144.31 28.294C144.855 27.9213 145.27 27.4913 145.557 27.004C145.872 26.488 146.03 25.9433 146.03 25.37V21.715H141.3C139.236 21.715 137.731 22.0017 136.785 22.575C135.839 23.1483 135.366 23.9797 135.366 25.069V25.972C135.366 27.1187 135.767 27.993 136.57 28.595C137.401 29.1683 138.534 29.455 139.967 29.455Z" fill="black"/>
<path d="M184.266 1.806H194.457C197.037 1.806 199.058 2.50833 200.52 3.913C201.982 5.31767 202.713 7.19533 202.713 9.546C202.713 11.352 202.269 12.771 201.38 13.803C200.52 14.835 199.402 15.566 198.026 15.996V16.125C199.718 16.5263 201.108 17.286 202.197 18.404C203.287 19.4933 203.831 21.0843 203.831 23.177C203.831 24.381 203.631 25.5133 203.229 26.574C202.828 27.6347 202.255 28.552 201.509 29.326C200.793 30.1 199.933 30.7163 198.929 31.175C197.955 31.605 196.894 31.82 195.747 31.82H184.266V1.806ZM194.672 28.681C196.335 28.681 197.639 28.3083 198.585 27.563C199.531 26.8177 200.004 25.671 200.004 24.123V22.36C200.004 20.8407 199.531 19.7083 198.585 18.963C197.639 18.189 196.335 17.802 194.672 17.802H187.878V28.681H194.672ZM194.07 14.835C195.59 14.835 196.779 14.5053 197.639 13.846C198.499 13.158 198.929 12.126 198.929 10.75V9.073C198.929 7.697 198.499 6.665 197.639 5.977C196.779 5.289 195.59 4.945 194.07 4.945H187.878V14.835H194.07Z" fill="black"/>
<path d="M219.553 32.336C217.947 32.336 216.5 32.0637 215.21 31.519C213.948 30.9743 212.859 30.2003 211.942 29.197C211.053 28.165 210.365 26.9467 209.878 25.542C209.39 24.1087 209.147 22.5177 209.147 20.769C209.147 18.9917 209.39 17.3863 209.878 15.953C210.394 14.5197 211.096 13.3013 211.985 12.298C212.873 11.266 213.934 10.4777 215.167 9.933C216.428 9.38833 217.818 9.116 219.338 9.116C220.828 9.116 222.176 9.38833 223.38 9.933C224.612 10.4777 225.659 11.2373 226.519 12.212C227.379 13.158 228.038 14.2903 228.497 15.609C228.955 16.9277 229.185 18.3753 229.185 19.952V21.586H212.759V22.618C212.759 23.5927 212.916 24.4957 213.232 25.327C213.547 26.1583 213.991 26.875 214.565 27.477C215.167 28.079 215.883 28.552 216.715 28.896C217.575 29.2113 218.521 29.369 219.553 29.369C221.043 29.369 222.333 29.025 223.423 28.337C224.512 27.649 225.343 26.703 225.917 25.499L228.454 27.219C227.794 28.7097 226.691 29.9423 225.143 30.917C223.623 31.863 221.76 32.336 219.553 32.336ZM219.338 11.954C218.392 11.954 217.517 12.126 216.715 12.47C215.912 12.814 215.21 13.287 214.608 13.889C214.034 14.491 213.576 15.2077 213.232 16.039C212.916 16.8417 212.759 17.7303 212.759 18.705V19.006H225.487V18.533C225.487 17.5583 225.329 16.6697 225.014 15.867C224.727 15.0643 224.311 14.3763 223.767 13.803C223.251 13.201 222.606 12.7423 221.832 12.427C221.086 12.1117 220.255 11.954 219.338 11.954Z" fill="black"/>
<path d="M236.263 31.82V9.632H239.703V13.244H239.875C240.104 12.6993 240.391 12.1833 240.735 11.696C241.079 11.18 241.494 10.7357 241.982 10.363C242.498 9.99033 243.1 9.68933 243.788 9.46C244.476 9.23067 245.278 9.116 246.196 9.116C248.518 9.116 250.381 9.86133 251.786 11.352C253.19 12.814 253.893 14.8923 253.893 17.587V31.82H250.453V18.189C250.453 16.1537 250.008 14.6487 249.12 13.674C248.231 12.6707 246.927 12.169 245.207 12.169C244.519 12.169 243.845 12.255 243.186 12.427C242.526 12.599 241.939 12.857 241.423 13.201C240.907 13.545 240.491 13.9893 240.176 14.534C239.86 15.0787 239.703 15.7093 239.703 16.426V31.82H236.263Z" fill="black"/>
<path d="M262.046 31.82V9.632H265.486V13.244H265.658C265.887 12.6993 266.174 12.1833 266.518 11.696C266.862 11.18 267.278 10.7357 267.765 10.363C268.281 9.99033 268.883 9.68933 269.571 9.46C270.259 9.23067 271.062 9.116 271.979 9.116C274.301 9.116 276.164 9.86133 277.569 11.352C278.974 12.814 279.676 14.8923 279.676 17.587V31.82H276.236V18.189C276.236 16.1537 275.792 14.6487 274.903 13.674C274.014 12.6707 272.71 12.169 270.99 12.169C270.302 12.169 269.628 12.255 268.969 12.427C268.31 12.599 267.722 12.857 267.206 13.201C266.69 13.545 266.274 13.9893 265.959 14.534C265.644 15.0787 265.486 15.7093 265.486 16.426V31.82H262.046Z" fill="black"/>
</svg>
